HIERARCHY
ROOT Hips
{
	OFFSET 0.764148 87.890884 8.039708
	CHANNELS 6 Xposition Yposition Zposition Zrotation Yrotation Xrotation 
	JOINT Spine
	{
		OFFSET -0.000000 8.814246 -2.080107
		CHANNELS 3 Zrotation Yrotation Xrotation
		JOINT Spine1
		{
			OFFSET 0.000000 8.844141 0.000000
			CHANNELS 3 Zrotation Yrotation Xrotation
			JOINT Spine2
			{
				OFFSET -0.000000 11.682268 -0.000000
				CHANNELS 3 Zrotation Yrotation Xrotation
				JOINT Spine3
				{
					OFFSET 0.000000 11.746700 0.000000
					CHANNELS 3 Zrotation Yrotation Xrotation
					JOINT Neck
					{
						OFFSET 0.000000 17.658264 0.000000
						CHANNELS 3 Zrotation Yrotation Xrotation
						JOINT Neck1
						{
							OFFSET -0.000000 5.101515 0.000000
							CHANNELS 3 Zrotation Yrotation Xrotation
							JOINT Head
							{
								OFFSET 0.000000 5.101515 -0.000000
								CHANNELS 3 Zrotation Yrotation Xrotation
								JOINT HeadEnd
								{
									OFFSET 0.000000 11.655085 0.000000
									CHANNELS 3 Zrotation Yrotation Xrotation
									End Site
									{
										OFFSET 0.000000 0.000000 0.000000
									}
								}
							}
						}
					}
					JOINT RightShoulder
					{
						OFFSET -2.625389 11.175210 -0.000000
						CHANNELS 3 Zrotation Yrotation Xrotation
						JOINT RightArm
						{
							OFFSET 0.000000 10.434715 -0.000000
							CHANNELS 3 Zrotation Yrotation Xrotation
							JOINT RightForeArm
							{
								OFFSET 0.000000 29.628420 -0.000000
								CHANNELS 3 Zrotation Yrotation Xrotation
								JOINT RightHand
								{
									OFFSET 0.000000 22.857611 0.000000
									CHANNELS 3 Zrotation Yrotation Xrotation
									JOINT RightHandThumb1
									{
										OFFSET -2.867323 3.959563 2.944291
										CHANNELS 3 Zrotation Yrotation Xrotation
										JOINT RightHandThumb2
										{
											OFFSET 0.000000 3.350399 -0.000000
											CHANNELS 3 Zrotation Yrotation Xrotation
											JOINT RightHandThumb3
											{
												OFFSET 0.000000 3.756509 -0.000000
												CHANNELS 3 Zrotation Yrotation Xrotation
												JOINT RightHandThumb4
												{
													OFFSET 0.000000 3.147345 -0.000000
													CHANNELS 3 Zrotation Yrotation Xrotation
													End Site
													{
														OFFSET 0.000000 0.000000 0.000000
													}
												}
											}
										}
									}
									JOINT RightHandIndex1
									{
										OFFSET -0.086752 10.030893 2.345280
										CHANNELS 3 Zrotation Yrotation Xrotation
										JOINT RightHandIndex2
										{
											OFFSET -0.000000 4.061090 -0.000000
											CHANNELS 3 Zrotation Yrotation Xrotation
											JOINT RightHandIndex3
											{
												OFFSET 0.000000 3.248873 -0.000000
												CHANNELS 3 Zrotation Yrotation Xrotation
												JOINT RightHandIndex4
												{
													OFFSET 0.000000 2.639709 0.000000
													CHANNELS 3 Zrotation Yrotation Xrotation
													End Site
													{
														OFFSET 0.000000 0.000000 0.000000
													}
												}
											}
										}
									}
									JOINT RightHandMiddle1
									{
										OFFSET 0.104102 9.502952 0.006768
										CHANNELS 3 Zrotation Yrotation Xrotation
										JOINT RightHandMiddle2
										{
											OFFSET 0.000000 4.568727 -0.000000
											CHANNELS 3 Zrotation Yrotation Xrotation
											JOINT RightHandMiddle3
											{
												OFFSET 0.000000 3.654981 -0.000000
												CHANNELS 3 Zrotation Yrotation Xrotation
												JOINT RightHandMiddle4
												{
													OFFSET 0.000000 2.741236 -0.000000
													CHANNELS 3 Zrotation Yrotation Xrotation
													End Site
													{
														OFFSET 0.000000 0.000000 0.000000
													}
												}
											}
										}
									}
									JOINT RightHandRing1
									{
										OFFSET 0.086752 8.921708 -2.267442
										CHANNELS 3 Zrotation Yrotation Xrotation
										JOINT RightHandRing2
										{
											OFFSET 0.000000 4.061090 -0.000000
											CHANNELS 3 Zrotation Yrotation Xrotation
											JOINT RightHandRing3
											{
												OFFSET -0.000000 3.654981 -0.000000
												CHANNELS 3 Zrotation Yrotation Xrotation
												JOINT RightHandRing4
												{
													OFFSET -0.000000 2.741236 -0.000000
													CHANNELS 3 Zrotation Yrotation Xrotation
													End Site
													{
														OFFSET 0.000000 0.000000 0.000000
													}
												}
											}
										}
									}
									JOINT RightHandPinky1
									{
										OFFSET -0.173504 7.976997 -4.467199
										CHANNELS 3 Zrotation Yrotation Xrotation
										JOINT RightHandPinky2
										{
											OFFSET -0.000000 3.350399 -0.000000
											CHANNELS 3 Zrotation Yrotation Xrotation
											JOINT RightHandPinky3
											{
												OFFSET 0.000000 2.842763 0.000000
												CHANNELS 3 Zrotation Yrotation Xrotation
												JOINT RightHandPinky4
												{
													OFFSET -0.000000 2.639709 -0.000000
													CHANNELS 3 Zrotation Yrotation Xrotation
													End Site
													{
														OFFSET 0.000000 0.000000 0.000000
													}
												}
											}
										}
									}
									JOINT RightForeArmEnd
									{
										OFFSET 0.000000 0.000000 0.000000
										CHANNELS 3 Zrotation Yrotation Xrotation
										End Site
										{
											OFFSET 0.000000 0.000000 0.000000
										}
									}
								}
								JOINT RightArmEnd
								{
									OFFSET 0.000000 0.000000 0.000000
									CHANNELS 3 Zrotation Yrotation Xrotation
									End Site
									{
										OFFSET 0.000000 0.000000 0.000000
									}
								}
							}
						}
					}
					JOINT LeftShoulder
					{
						OFFSET 2.625389 11.175210 0.000000
						CHANNELS 3 Zrotation Yrotation Xrotation
						JOINT LeftArm
						{
							OFFSET -0.000000 10.813635 -0.000000
							CHANNELS 3 Zrotation Yrotation Xrotation
							JOINT LeftForeArm
							{
								OFFSET -0.000000 28.724781 0.000000
								CHANNELS 3 Zrotation Yrotation Xrotation
								JOINT LeftHand
								{
									OFFSET 0.644384 25.716167 -0.328871
									CHANNELS 3 Zrotation Yrotation Xrotation
									JOINT LeftHandThumb1
									{
										OFFSET 2.867323 3.959563 2.944291
										CHANNELS 3 Zrotation Yrotation Xrotation
										JOINT LeftHandThumb2
										{
											OFFSET 0.000000 3.350399 0.000000
											CHANNELS 3 Zrotation Yrotation Xrotation
											JOINT LeftHandThumb3
											{
												OFFSET 0.000000 3.756509 0.000000
												CHANNELS 3 Zrotation Yrotation Xrotation
												JOINT LeftHandThumb4
												{
													OFFSET -0.000000 3.100000 -0.000000
													CHANNELS 3 Zrotation Yrotation Xrotation
													End Site
													{
														OFFSET 0.000000 0.000000 0.000000
													}
												}
											}
										}
									}
									JOINT LeftHandIndex1
									{
										OFFSET 0.086752 10.030893 2.345280
										CHANNELS 3 Zrotation Yrotation Xrotation
										JOINT LeftHandIndex2
										{
											OFFSET 0.000000 4.061090 0.000000
											CHANNELS 3 Zrotation Yrotation Xrotation
											JOINT LeftHandIndex3
											{
												OFFSET -0.000000 3.248873 -0.000000
												CHANNELS 3 Zrotation Yrotation Xrotation
												JOINT LeftHandIndex4
												{
													OFFSET -0.000000 2.639709 0.000000
													CHANNELS 3 Zrotation Yrotation Xrotation
													End Site
													{
														OFFSET 0.000000 0.000000 0.000000
													}
												}
											}
										}
									}
									JOINT LeftHandMiddle1
									{
										OFFSET -0.104102 9.502952 0.006768
										CHANNELS 3 Zrotation Yrotation Xrotation
										JOINT LeftHandMiddle2
										{
											OFFSET -0.000000 4.568727 0.000000
											CHANNELS 3 Zrotation Yrotation Xrotation
											JOINT LeftHandMiddle3
											{
												OFFSET -0.000000 3.654981 0.000000
												CHANNELS 3 Zrotation Yrotation Xrotation
												JOINT LeftHandMiddle4
												{
													OFFSET 0.000000 2.741236 0.000000
													CHANNELS 3 Zrotation Yrotation Xrotation
													End Site
													{
														OFFSET 0.000000 0.000000 0.000000
													}
												}
											}
										}
									}
									JOINT LeftHandRing1
									{
										OFFSET -0.086752 8.921708 -2.267442
										CHANNELS 3 Zrotation Yrotation Xrotation
										JOINT LeftHandRing2
										{
											OFFSET 0.000000 4.061090 0.000000
											CHANNELS 3 Zrotation Yrotation Xrotation
											JOINT LeftHandRing3
											{
												OFFSET 0.000000 3.654981 0.000000
												CHANNELS 3 Zrotation Yrotation Xrotation
												JOINT LeftHandRing4
												{
													OFFSET 0.000000 2.741236 -0.000000
													CHANNELS 3 Zrotation Yrotation Xrotation
													End Site
													{
														OFFSET 0.000000 0.000000 0.000000
													}
												}
											}
										}
									}
									JOINT LeftHandPinky1
									{
										OFFSET 0.173504 7.976997 -4.467199
										CHANNELS 3 Zrotation Yrotation Xrotation
										JOINT LeftHandPinky2
										{
											OFFSET 0.000000 3.350399 -0.000000
											CHANNELS 3 Zrotation Yrotation Xrotation
											JOINT LeftHandPinky3
											{
												OFFSET 0.000000 2.842763 -0.000000
												CHANNELS 3 Zrotation Yrotation Xrotation
												JOINT LeftHandPinky4
												{
													OFFSET -0.000000 2.639709 -0.000000
													CHANNELS 3 Zrotation Yrotation Xrotation
													End Site
													{
														OFFSET 0.000000 0.000000 0.000000
													}
												}
											}
										}
									}
									JOINT LeftForeArmEnd
									{
										OFFSET 0.000000 0.000000 0.000000
										CHANNELS 3 Zrotation Yrotation Xrotation
										End Site
										{
											OFFSET 0.000000 0.000000 0.000000
										}
									}
								}
								JOINT LeftArmEnd
								{
									OFFSET 0.000000 0.000000 0.000000
									CHANNELS 3 Zrotation Yrotation Xrotation
									End Site
									{
										OFFSET 0.000000 0.000000 0.000000
									}
								}
							}
						}
					}
				}
			}
		}
	}
	JOINT RightUpLeg
	{
		OFFSET -11.289943 -0.000000 0.000000
		CHANNELS 3 Zrotation Yrotation Xrotation
		JOINT RightLeg
		{
			OFFSET 0.000000 -38.200325 -0.000000
			CHANNELS 3 Zrotation Yrotation Xrotation
			JOINT RightFoot
			{
				OFFSET 0.000000 -39.900856 0.000000
				CHANNELS 3 Zrotation Yrotation Xrotation
				JOINT RightToeBase
				{
					OFFSET -0.000000 -0.000000 15.261641
					CHANNELS 3 Zrotation Yrotation Xrotation
					JOINT RightToeBaseEnd
					{
						OFFSET 0.000000 0.000000 7.370709
						CHANNELS 3 Zrotation Yrotation Xrotation
						End Site
						{
							OFFSET 0.000000 0.000000 0.000000
						}
					}
				}
				JOINT RightLegEnd
				{
					OFFSET 0.000000 0.000000 0.000000
					CHANNELS 3 Zrotation Yrotation Xrotation
					End Site
					{
						OFFSET 0.000000 0.000000 0.000000
					}
				}
			}
			JOINT RightUpLegEnd
			{
				OFFSET 0.000000 0.000000 0.000000
				CHANNELS 3 Zrotation Yrotation Xrotation
				End Site
				{
					OFFSET 0.000000 0.000000 0.000000
				}
			}
		}
	}
	JOINT LeftUpLeg
	{
		OFFSET 11.315661 0.000000 0.000000
		CHANNELS 3 Zrotation Yrotation Xrotation
		JOINT LeftLeg
		{
			OFFSET -0.000000 -38.200325 0.000000
			CHANNELS 3 Zrotation Yrotation Xrotation
			JOINT LeftFoot
			{
				OFFSET 0.000000 -39.900856 0.000000
				CHANNELS 3 Zrotation Yrotation Xrotation
				JOINT LeftToeBase
				{
					OFFSET 0.000000 -0.000000 15.261641
					CHANNELS 3 Zrotation Yrotation Xrotation
					JOINT LeftToeBaseEnd
					{
						OFFSET -0.000000 0.000000 7.539996
						CHANNELS 3 Zrotation Yrotation Xrotation
						End Site
						{
							OFFSET 0.000000 0.000000 0.000000
						}
					}
				}
				JOINT LeftLegEnd
				{
					OFFSET 0.000000 0.000000 0.000000
					CHANNELS 3 Zrotation Yrotation Xrotation
					End Site
					{
						OFFSET 0.000000 0.000000 0.000000
					}
				}
			}
			JOINT LeftUpLegEnd
			{
				OFFSET 0.000000 0.000000 0.000000
				CHANNELS 3 Zrotation Yrotation Xrotation
				End Site
				{
					OFFSET 0.000000 0.000000 0.000000
				}
			}
		}
	}
}
MOTION
Frames: 4
Frame Time: 0.016667
0.764148 87.890884 8.039708 0.374749 0.140021 -20.487368 1.360808 -0.045345 10.760383 0.411646 0.162763 2.270701 -7.014422 3.973520 19.259388 -6.906528 0.490545 8.946464 -23.943913 3.964775 19.757568 -4.636087 -3.526213 4.251823 -2.222362 -2.433826 -18.873472 0.000000 0.000000 0.000000 92.085869 -0.550939 15.265782 47.046745 -44.637085 29.098366 -0.052951 12.872101 30.924927 6.722498 19.637011 -5.118998 10.637670 -1.840800 39.870987 0.000000 0.000000 -25.919998 0.000000 0.000000 -18.000004 0.000000 0.000000 0.000000 13.050940 0.000000 -9.409231 9.135656 0.000000 0.000000 9.135656 0.000000 0.000000 0.000000 0.000000 0.000000 12.600581 0.000000 -10.326110 8.820408 0.000000 0.000000 8.820408 0.000000 0.000000 0.000000 0.000000 0.000000 15.555212 -0.000001 -9.562082 10.888649 0.000000 0.000000 10.888649 0.000000 0.000000 0.000000 0.000000 0.000000 17.745337 0.000000 -10.487231 12.421734 0.000000 0.000000 12.421734 0.000000 0.000000 0.000000 0.000000 0.000000 0.000000 0.000000 0.000000 0.000000 0.000000 0.000000 -94.063194 0.737751 9.776923 -51.132179 16.883085 10.438984 -0.917146 -6.590941 37.312828 -6.590643 -20.348375 -11.134463 -10.637670 1.840800 39.870987 0.000000 0.000000 -25.919998 0.000000 0.000000 -18.000004 0.000000 0.000000 0.000000 -13.835908 0.000000 -9.249647 -9.685136 0.000000 0.000000 -9.685136 0.000000 0.000000 0.000000 0.000000 0.000000 -13.481020 0.000000 -10.363645 -9.436713 0.000000 0.000000 -9.436713 0.000000 0.000000 0.000000 0.000000 0.000000 -16.433882 -0.000000 -10.430699 -11.503717 0.000000 0.000000 -11.503717 0.000000 0.000000 0.000000 0.000000 0.000000 -18.445660 0.000000 -11.105450 -12.911960 0.000000 0.000000 -12.911960 0.000000 0.000000 0.000000 0.000000 0.000000 0.000000 0.000000 0.000000 0.000000 0.000000 0.000000 -9.014223 -11.569287 26.599995 -0.126483 -1.117180 6.259821 2.837546 -11.456786 14.945110 -0.895697 1.883620 -15.710292 0.000000 0.000000 0.000000 0.000000 0.000000 0.000000 0.000000 0.000000 0.000000 3.388245 -3.715308 19.247583 0.221753 0.932421 13.709390 -1.058385 -0.478602 13.747182 1.016154 -0.884220 -18.775427 0.000000 0.000000 0.000000 0.000000 0.000000 0.000000 0.000000 0.000000 0.000000 
0.724420 87.872398 7.837262 0.279320 -0.127023 -19.846956 1.146367 0.251688 10.901108 1.097237 0.249710 1.765386 -7.856039 4.981655 19.273058 -5.696742 0.976583 8.929714 -23.719023 3.373568 18.886990 -3.364249 -4.493103 3.977183 -1.868332 -2.226905 -19.872187 0.000000 0.000000 0.000000 92.308372 -0.422621 15.783911 50.286812 -40.758797 24.660000 -0.301018 11.404738 30.137159 6.095572 19.339003 -4.967842 10.461141 -1.808916 39.973892 0.000001 0.000004 -25.614656 -0.000001 0.000045 -17.736938 0.000001 -0.000003 -0.000020 12.799266 0.188027 -8.335488 9.359181 -0.053637 -0.047567 9.521091 -0.035757 -0.061360 -0.000022 0.000017 -0.000009 12.623664 0.063098 -9.456440 8.892144 -0.039384 -0.036493 8.881362 -0.002516 -0.038524 0.000032 0.000064 0.000017 15.771292 -0.109530 -8.725733 10.776267 0.060789 0.048074 10.728556 0.005348 0.041489 -0.000031 -0.000070 0.000014 17.599079 -0.236279 -9.685318 11.924091 0.120824 0.182770 11.794003 0.006088 0.134048 -0.000049 0.000002 0.000037 0.000000 0.000000 0.000000 0.000000 0.000000 0.000000 -92.483719 0.615303 9.906354 -51.317764 20.566248 11.331057 -1.152609 -10.151655 37.642815 -8.031013 -18.060785 -10.897510 -10.527018 1.821979 39.936108 0.000006 0.000017 -25.739597 0.000074 -0.000012 -17.909693 0.000061 -0.000013 0.000773 -14.104459 0.233369 -10.325405 -9.563799 -0.063631 -0.001180 -9.616755 -0.032798 0.048551 -0.000004 0.000183 -0.000026 -13.841970 0.105844 -11.213290 -9.385842 -0.043924 0.001083 -9.235253 -0.005904 0.005702 0.000552 -0.000040 0.000005 -16.620016 -0.089842 -10.463708 -11.182827 0.081977 -0.014930 -11.135228 0.018730 -0.011736 0.000643 0.000011 -0.000001 -18.292040 -0.286373 -10.189433 -12.544450 0.173085 0.071804 -12.404248 0.055558 0.024256 -0.000252 -0.000021 -0.000034 0.000000 0.000000 0.000000 0.000000 0.000000 0.000000 -8.489420 -13.416509 24.714834 -0.197405 -1.082791 8.282638 2.626187 -10.099413 13.521616 -0.901091 1.945166 -15.669838 0.000000 0.000000 0.000000 0.000000 0.000000 0.000000 0.000000 0.000000 0.000000 3.558937 -4.863846 18.514158 0.166973 0.697712 13.131207 -1.539690 1.787695 13.840422 1.009174 -0.951137 -18.523119 0.000000 0.000000 0.000000 0.000000 0.000000 0.000000 0.000000 0.000000 0.000000 
0.724446 87.873634 7.835565 0.245399 -0.193485 -19.834389 1.162594 0.232120 10.879252 1.073357 0.244520 1.869002 -7.812642 4.900605 19.084602 -5.655529 0.969790 8.983507 -23.587442 3.461450 18.941856 -3.336315 -4.312254 4.012243 -1.910966 -2.218136 -19.946529 0.000000 0.000000 0.000000 92.266693 -0.456288 15.686045 50.200027 -40.640198 24.723171 -0.280204 11.459831 30.058790 6.286779 19.446112 -5.118966 10.442933 -1.815719 39.967072 0.000008 0.000022 -25.609329 -0.000001 0.000045 -17.744675 0.000027 0.000007 -0.000036 12.651552 0.186547 -8.424011 9.258052 -0.056505 -0.051553 9.429007 -0.039261 -0.066755 -0.000004 0.000030 -0.000012 12.549392 0.062621 -9.547614 8.783436 -0.039947 -0.038154 8.774230 -0.002999 -0.040459 0.000033 0.000049 0.000000 15.748887 -0.108214 -8.845798 10.660909 0.061485 0.050428 10.614358 0.006077 0.042253 -0.000030 0.000111 -0.000002 17.633213 -0.232979 -9.876055 11.827549 0.123139 0.196369 11.686555 0.008149 0.143240 0.000033 0.000008 0.000041 0.000000 0.000000 0.000000 0.000000 0.000000 0.000000 -92.538857 0.557521 9.823486 -51.743046 20.635015 10.924694 -1.181345 -10.010492 37.747978 -7.643647 -17.848734 -10.921678 -10.544588 1.825285 39.928757 0.000028 0.000027 -25.764120 0.000067 -0.000010 -17.920345 0.000135 -0.000002 0.000698 -14.275600 0.233262 -10.370370 -9.666781 -0.064353 -0.002575 -9.716871 -0.033363 0.044386 0.000014 0.000234 -0.000009 -14.005719 0.105745 -11.239806 -9.457584 -0.043690 -0.000102 -9.298541 -0.005682 0.005035 0.000619 -0.000026 0.000004 -16.754993 -0.087317 -10.499204 -11.202956 0.082829 -0.013747 -11.141595 0.019094 -0.011966 0.000624 0.000013 0.000005 -18.387136 -0.276309 -10.267534 -12.506024 0.173178 0.073377 -12.353638 0.055860 0.025416 -0.000279 0.000010 -0.000046 0.000000 0.000000 0.000000 0.000000 0.000000 0.000000 -8.476325 -13.297889 24.693020 -0.196380 -1.084239 8.255500 2.661134 -9.964929 13.582269 -0.909057 1.935758 -15.716807 0.000000 0.000000 0.000000 0.000000 0.000000 0.000000 0.000000 0.000000 0.000000 3.574831 -4.809025 18.479179 0.173758 0.707370 13.160155 -1.602700 1.750127 13.799535 1.006541 -0.950021 -18.551186 0.000000 0.000000 0.000000 0.000000 0.000000 0.000000 0.000000 0.000000 0.000000 
0.722870 87.873093 7.830815 0.227841 -0.249740 -19.814325 1.156911 0.213862 10.866876 1.061691 0.227457 1.931926 -7.747458 4.791806 18.945047 -5.614049 0.949679 9.016529 -23.478252 3.501102 18.952900 -3.303942 -4.185934 4.016101 -1.932472 -2.208452 -20.005730 0.000000 0.000000 0.000000 92.224289 -0.487933 15.603083 50.096439 -40.609890 24.776091 -0.268680 11.511610 30.030861 6.399667 19.509214 -5.143923 10.413845 -1.816003 39.973610 0.000010 0.000022 -25.559603 -0.000002 0.000046 -17.711838 0.000027 0.000006 -0.000036 12.475039 0.183618 -8.527634 9.210707 -0.057228 -0.057858 9.389664 -0.040484 -0.076330 -0.000004 0.000031 -0.000014 12.433231 0.062431 -9.625637 8.737893 -0.039786 -0.040589 8.722800 -0.003081 -0.043522 0.000032 0.000044 0.000001 15.650591 -0.107128 -8.903779 10.602573 0.062156 0.052275 10.566025 0.006740 0.043432 -0.000029 0.000259 -0.000002 17.547728 -0.230281 -9.946850 11.764148 0.126592 0.197582 11.629579 0.011559 0.144824 0.000071 0.000007 0.000032 0.000000 0.000000 0.000000 0.000000 0.000000 0.000000 -92.537628 0.513525 9.748625 -52.042534 20.616945 10.705224 -1.225481 -9.886593 37.727024 -7.389808 -17.621309 -11.098478 -10.561480 1.826558 39.922352 0.000027 0.000028 -25.795689 0.000063 -0.000010 -17.935169 0.000190 -0.000003 0.000675 -14.401066 0.231357 -10.408710 -9.743361 -0.064659 -0.000361 -9.787073 -0.033198 0.046310 0.000013 0.000259 -0.000008 -14.111706 0.105809 -11.255997 -9.513174 -0.043387 0.000504 -9.348772 -0.005510 0.005527 0.000649 -0.000027 0.000004 -16.801161 -0.085261 -10.500568 -11.216004 0.083410 -0.012591 -11.144510 0.019286 -0.012576 0.000657 0.000013 0.000004 -18.373047 -0.271900 -10.277633 -12.462510 0.174823 0.080596 -12.299635 0.057300 0.029339 -0.000330 0.000011 -0.000046 0.000000 0.000000 0.000000 0.000000 0.000000 0.000000 -8.462964 -13.166112 24.650669 -0.195520 -1.085427 8.267015 2.682444 -9.907237 13.636511 -0.914701 1.928570 -15.761735 0.000000 0.000000 0.000000 0.000000 0.000000 0.000000 0.000000 0.000000 0.000000 3.580686 -4.749743 18.448799 0.177354 0.706786 13.178087 -1.624181 1.834503 13.792653 0.996451 -0.940859 -18.563305 0.000000 0.000000 0.000000 0.000000 0.000000 0.000000 0.000000 0.000000 0.000000 
